<svg width="28" height="28" viewBox="0 0 28 28" fill="none" xmlns="http://www.w3.org/2000/svg">
  <defs>
    <linearGradient id="moonBg" x1="4" y1="4" x2="24" y2="24" gradientUnits="userSpaceOnUse">
      <stop stop-color="#0F172A"/>
      <stop offset="1" stop-color="#1E293B"/>
    </linearGradient>
  </defs>
  <circle cx="14" cy="14" r="13" fill="url(#moonBg)" stroke="#334155"/>
  <path d="M17.7 7.7C15.1 8.3 13.1 10.7 13.1 13.5C13.1 16.8 15.7 19.4 19 19.4C19.5 19.4 20 19.3 20.5 19.2C19.2 20.8 17.2 21.8 14.9 21.8C11 21.8 7.8 18.6 7.8 14.7C7.8 11.3 10.2 8.5 13.4 7.8C14.8 7.5 16.3 7.5 17.7 7.7Z" fill="#E2E8F0"/>
  <circle cx="20.8" cy="8.2" r="0.9" fill="#E2E8F0"/>
  <circle cx="9.2" cy="7.2" r="0.8" fill="#94A3B8"/>
  <circle cx="7.4" cy="20.2" r="0.7" fill="#94A3B8"/>
</svg>
