<!-- <svg width="28" height="28" viewBox="0 0 28 28" fill="none" xmlns="http://www.w3.org/2000/svg"> -->
<!--   <defs> -->
<!--     <linearGradient id="sunGlow" x1="4" y1="4" x2="24" y2="24" gradientUnits="userSpaceOnUse"> -->
<!--       <stop stop-color="#FCD34D"/> -->
<!--       <stop offset="1" stop-color="#F59E0B"/> -->
<!--     </linearGradient> -->
<!--   </defs> -->
<!--   <circle cx="14" cy="14" r="13" fill="#FFFBEB" stroke="#FDE68A"/> -->
<!--   <circle cx="14" cy="14" r="5" fill="url(#sunGlow)"/> -->
<!--   <g stroke="#F59E0B" stroke-width="1.5" stroke-linecap="round"> -->
<!--     <path d="M14 3.5V6"/> -->
<!--     <path d="M14 22V24.5"/> -->
<!--     <path d="M24.5 14H22"/> -->
<!--     <path d="M6 14H3.5"/> -->
<!--     <path d="M21.4 6.6L19.7 8.3"/> -->
<!--     <path d="M8.3 19.7L6.6 21.4"/> -->
<!--     <path d="M21.4 21.4L19.7 19.7"/> -->
<!--     <path d="M8.3 8.3L6.6 6.6"/> -->
<!--   </g> -->
<!-- </svg> -->

<svg viewBox="0 0 24 24" fill="none" xmlns="http://www.w3.org/2000/svg"><g id="SVGRepo_bgCarrier" stroke-width="0"></g><g id="SVGRepo_tracerCarrier" stroke-linecap="round" stroke-linejoin="round"></g><g id="SVGRepo_iconCarrier"> <path d="M12 3V4M12 20V21M4 12H3M6.31412 6.31412L5.5 5.5M17.6859 6.31412L18.5 5.5M6.31412 17.69L5.5 18.5001M17.6859 17.69L18.5 18.5001M21 12H20M16 12C16 14.2091 14.2091 16 12 16C9.79086 16 8 14.2091 8 12C8 9.79086 9.79086 8 12 8C14.2091 8 16 9.79086 16 12Z" stroke="#858585" stroke-width="2" stroke-linecap="round" stroke-linejoin="round"></path> </g></svg>
